<svg xmlns="http://www.w3.org/2000/svg" width="170" height="40.993"><g fill="#A02842"><path d="M162.201 37.671a.73.73 0 010 1.459.73.73 0 010-1.459M14.452 9.153c-1.551-1.272-3.659-1.954-5.644-1.954C3.659 7.199 0 10.735 0 15.976c0 4.28 3.318 8.218 8.808 8.218 1.768 0 4.527-.682 5.799-2.046l-2.637-3.442c-.898.807-1.922 1.147-3.07 1.147-2.512 0-4.063-1.985-4.063-4.467 0-2.233 1.83-3.844 3.97-3.844 1.116 0 2.264.372 3.132 1.115l2.513-3.504zM17.185 23.947l4.838-.496v-8.095c0-2.388.869-3.35 3.287-3.318l1.365-4.839c-2.636 0-4.217.498-5.148 3.289h-.062v-3.04l-4.28.496v16.003zM53.786 12.192c1.304-.589 2.76-.961 4.188-.961 2.078 0 3.101.465 3.101 2.667 0 .187 0 .342-.031.497-1.024-.745-2.388-1.21-3.598-1.21-3.07 0-5.707 2.017-5.707 5.241 0 3.413 1.955 5.769 5.552 5.769 1.644 0 3.039-.402 3.97-1.83h.062v1.583l4.218-.497V12.782c0-3.938-2.729-5.583-6.699-5.583-1.334 0-3.132.28-4.373.713l-.683 4.28zm2.45 6.172c0-1.302 1.085-2.078 2.42-2.078 1.302 0 2.388.776 2.388 2.078 0 1.334-1.085 2.11-2.388 2.11-1.334 0-2.42-.776-2.42-2.11M70.662 11.944V17.9c0 4.248 2.265 6.294 6.544 6.294.248 0 .527-.03.745-.061l1.395-4.776c-.218.093-.837.186-1.272.186-1.364 0-2.574-.434-2.574-2.016v-5.583h2.76V7.912H75.5V2.888L70.662 4.75v3.163h-1.52l-1.023 4.032h2.543z"/></g><path fill="#A02842" d="M87.4 7.447l-4.838.496v16.003l4.838-.495z"/><g fill="#A02842"><path d="M95.684 15.697c0-2.233 1.892-4 4.033-4 2.17 0 4.063 1.767 4.063 4s-1.893 4.001-4.063 4.001c-2.141 0-4.033-1.767-4.033-4.001m4.032 8.498c4.714 0 8.9-3.566 8.9-8.498 0-4.932-4.187-8.499-8.9-8.499-4.683 0-8.871 3.567-8.871 8.499 0 4.931 4.189 8.498 8.871 8.498M115.966 7.199l-4.466.496v16.251l4.838-.497V14.3c0-1.86.962-2.76 2.42-2.76 1.457 0 2.417.899 2.417 2.76v9.646l4.84-.497V13.96c0-3.97-1.458-6.762-5.831-6.762-1.333 0-2.915.559-4.155 2.419h-.063V7.199zM133.582 15.82v-.557c0-2.047 1.644-4.033 3.752-4.033.838 0 1.644.125 2.141.652l-5.893 3.938zm11.692-3.72c-1.489-2.977-4.623-4.901-7.973-4.901-4.589 0-8.372 3.971-8.372 8.716 0 3.845 3.505 8.279 8.591 8.279 2.76 0 5.147-1.022 7.258-2.48l-2.544-3.721c-1.303 1.054-2.916 1.86-4.621 1.86-.93 0-2.047-.341-2.605-1.146l10.266-6.607z"/></g><path fill="#A02842" d="M148.374 2.082v21.865l4.836-.496V1.586zM157.922 2.082v21.865l4.837-.496V1.586zM82.561 2.605a2.607 2.607 0 115.214.004 2.607 2.607 0 01-5.214-.004M167.802 3.464c.306 0 .574-.031.574-.389 0-.306-.293-.348-.537-.348h-.492v.737h.455zm-.455 1.417h-.413V2.387h.942c.608 0 .912.206.912.717 0 .45-.274.64-.655.682l.697 1.095h-.442l-.646-1.077h-.395v1.077zm-1.297-1.254c0 1.035.761 1.801 1.74 1.801.961 0 1.723-.767 1.723-1.801 0-1.023-.762-1.789-1.723-1.789-.979.001-1.74.766-1.74 1.789m-.486 0c0-1.278 1.027-2.178 2.227-2.178 1.182 0 2.209.9 2.209 2.178 0 1.291-1.027 2.19-2.209 2.19-1.2.001-2.227-.899-2.227-2.19M92.407 32.404c-.159 0-.242.021-.349.021-.032.92-.043 1.84-.043 2.761 0 .963.033 1.916.033 2.878.084.01.201.031.392.031 1.278 0 1.946-.571 1.946-2.889 0-2.21-.678-2.802-1.979-2.802m.276-.931c2.242.043 3.099 1.671 3.099 3.765 0 2.159-.835 3.787-3.173 3.787h-1.946c.021-1.226.042-2.464.042-3.691 0-1.29-.01-2.571-.032-3.86h2.01zM98.034 33.737c-.073.878-.052 1.755-.052 2.634 0 1.099.042 2.188.084 2.655h-1.302c.096-.953.053-1.915.053-2.868 0-1.174-.053-2.157-.084-2.421h1.301zm.074-1.44c0 .435-.254.848-.729.848-.466 0-.689-.435-.689-.814 0-.477.308-.856.73-.856.381-.001.688.327.688.822M101.155 35.842c.475-.148.623-.275.623-.571 0-.498-.317-.899-.666-.899-.381 0-.857.349-.878 1.768l.921-.298zm-.805 1.216c.042.307.296 1.164 1.142 1.164.424 0 .815-.254 1.068-.477l.444.498c-.18.211-.751.93-1.797.93-1.196 0-2.202-1.067-2.202-2.666 0-1.46.868-2.918 2.116-2.918 1.438 0 1.777 1.417 1.82 2.581l-2.591.888zM107.352 31.473c.4 1.988.772 3.936.972 5.277h.022c.37-1.554.856-3.448 1.016-4.018l-.224-1.048 1.186-.359c.444 1.851.751 3.722 1.1 5.595h.021c.37-1.808.835-3.617 1.121-5.447h1.174a2087.37 2087.37 0 01-1.915 7.552h-1.005c-.369-1.65-.804-3.5-.992-4.432h-.022c-.297 1.492-.762 2.951-1.11 4.432h-1.004c-.604-2.506-1.111-5.034-1.672-7.552h1.332zM115.94 35.842c.476-.148.624-.275.624-.571 0-.498-.317-.899-.666-.899-.382 0-.856.349-.88 1.768l.922-.298zm-.805 1.216c.043.307.296 1.164 1.143 1.164.423 0 .815-.254 1.068-.477l.443.498c-.179.211-.749.93-1.797.93-1.196 0-2.2-1.067-2.2-2.666 0-1.46.867-2.918 2.115-2.918 1.438 0 1.777 1.417 1.82 2.581l-2.592.888zM119.61 33.737c.095.222.116.634.126.75.625-.718.995-.941 1.386-.941.086 0 .223.022.297.043v1.067a2.59 2.59 0 00-.392-.032c-.909 0-1.227.763-1.227 2.392 0 1.152.043 1.533.063 2.009h-1.3c.012-.422.073-.729.073-2.57 0-.898.012-1.851-.264-2.718h1.238zM123.343 36.317c0 .816 0 1.301.021 1.671.106.149.402.275.625.275.539 0 1.025-.55 1.025-1.799 0-1.405-.623-1.924-1.1-1.924-.148 0-.412.106-.571.286v1.491zm0-4.844c-.011.243-.011.465-.011 1.016v1.501c.359-.232.772-.402 1.111-.402 1.025 0 1.818.973 1.818 2.56 0 1.524-.804 3.024-2.041 3.024-.582 0-.983-.295-1.258-.508l-.478.508-.4-.232c.105-.867.095-1.756.095-2.623 0-1.788-.032-3.258-.095-4.844h1.259zM129.055 35.842c.475-.148.623-.275.623-.571 0-.498-.316-.899-.666-.899-.382 0-.856.349-.878 1.768l.921-.298zm-.805 1.216c.043.307.297 1.164 1.142 1.164.424 0 .815-.254 1.068-.477l.444.498c-.18.211-.75.93-1.797.93-1.196 0-2.2-1.067-2.2-2.666 0-1.46.867-2.918 2.114-2.918 1.438 0 1.777 1.417 1.82 2.581l-2.591.888zM134.036 36.244c-.941.116-1.48.581-1.48 1.216 0 .498.359.761.752.761a.899.899 0 00.729-.349v-1.628zm.276 2.781a1.09 1.09 0 01-.223-.413c-.35.275-.709.561-1.28.561-.973 0-1.48-.803-1.48-1.554 0-1.512 1.713-1.988 2.676-2.264-.074-.561-.391-.899-.994-.899-.497 0-.94.265-1.163.38v-1.248c.223-.021.519-.043.719-.043 1.354 0 2.634.434 2.634 1.988v1.873c0 .551.084 1.09.222 1.618h-1.111zM138.383 38.137c.19 0 .392-.074.54-.181.021-.211.042-.836.042-1.745 0-1.649-.202-1.798-.635-1.798-.477 0-.973.562-.973 1.957.001 1.111.371 1.767 1.026 1.767m1.587-4.548l.327.285c-.18.519-.17 1.937-.17 3.998 0 .18.022 1.006.022 1.238 0 1.386-.942 1.883-2.222 1.883-.539 0-1.078-.106-1.607-.222l.297-1.249c.222.169.75.581 1.427.581.698 0 .909-.465.909-1.089 0-.106-.01-.211-.021-.295-.2.105-.622.306-1.015.306-.781 0-1.809-.687-1.809-2.336 0-1.81 1.048-3.1 2.232-3.1.434 0 .782.159 1.101.455l.529-.455zM143.153 35.842c.477-.148.624-.275.624-.571 0-.498-.317-.899-.666-.899-.381 0-.855.349-.878 1.768l.92-.298zm-.804 1.216c.043.307.296 1.164 1.142 1.164.425 0 .815-.254 1.068-.477l.445.498c-.181.211-.751.93-1.798.93-1.197 0-2.201-1.067-2.201-2.666 0-1.46.868-2.918 2.115-2.918 1.438 0 1.777 1.417 1.82 2.581l-2.591.888zM146.781 33.737l.117.539c.307-.413.771-.687 1.236-.687.952 0 1.376.698 1.376 1.893 0 .751 0 3.036.084 3.543h-1.279c.021-.169.054-1.406.054-1.607 0-.233-.021-1.249-.021-1.587 0-.847-.17-1.164-.624-1.164-.371 0-.582.275-.751.519v1.819c0 .678.011 1.354.063 2.021h-1.258c.011-.528.031-1.703.031-2.549 0-.952-.063-2.421-.138-2.739h1.11zM153.064 34.562h-.889c-.011.211-.031.614-.031 1.343v1.481c0 .644.188.876.517.876.075 0 .318-.02.424-.042v.73a2.048 2.048 0 01-.846.221c-.836 0-1.238-.57-1.238-1.322 0-.518-.01-2.834-.042-3.289h-.666v-.825h.688c0-.137.031-.961-.021-1.64h1.217c-.011.233-.031.434-.031 1.058 0 .117.042.371.021.582h.899v.827zM156.542 39.025l-.116-.539c-.306.413-.771.687-1.236.687-.952 0-1.376-.698-1.376-1.893 0-.751 0-3.035-.086-3.543h1.281a39.148 39.148 0 00-.053 1.607c0 .233.021 1.249.021 1.586 0 .847.169 1.164.623 1.164.371 0 .582-.275.751-.519v-1.818c0-.678-.01-1.354-.063-2.021h1.259c-.011.529-.031 1.703-.031 2.549 0 .952.064 2.423.137 2.739h-1.111zM159.749 33.737c.093.222.115.634.126.75.623-.718.995-.941 1.385-.941.086 0 .223.022.297.043v1.067a2.588 2.588 0 00-.391-.032c-.911 0-1.228.763-1.228 2.392 0 1.152.043 1.533.063 2.009H158.7c.011-.422.073-.729.073-2.57 0-.898.011-1.851-.264-2.718h1.24zM26.262 18.789c0-6.67 5.408-12.077 12.078-12.077 6.67 0 12.079 5.407 12.079 12.077 0 6.671-5.408 12.078-12.079 12.078-6.67 0-12.078-5.407-12.078-12.078"/><path fill="#E2E71F" d="M42.762 18.443c.006.237-.019.469-.047.699l-6.727-4.271a3.84 3.84 0 012.259-.818c2.231-.059 4.452 1.994 4.515 4.39m3.982.299c0-4.734-3.815-8.571-8.523-8.571-3.485 0-6.446 2.123-7.765 5.136l10.445 6.76c-.576.835-1.86 1.262-2.684 1.262-2.12 0-3.401-.989-4.71-2.01l-2.047 2.956c1.563 1.805 4.195 2.965 6.762 2.965 4.706 0 8.522-3.764 8.522-8.498"/></svg>
